<?xml version="1.0" encoding="UTF-8" standalone="no"?>
<!DOCTYPE svg PUBLIC "-//W3C//DTD SVG 1.1//EN" "http://www.w3.org/Graphics/SVG/1.1/DTD/svg11.dtd">
<svg width="100%" height="100%" viewBox="0 0 1055 1129" version="1.1" xmlns="http://www.w3.org/2000/svg" xmlns:xlink="http://www.w3.org/1999/xlink" xml:space="preserve" xmlns:serif="http://www.serif.com/" style="fill-rule:evenodd;clip-rule:evenodd;stroke-linecap:round;stroke-linejoin:round;stroke-miterlimit:1.5;">
    <g transform="matrix(0.089765,0,0,0.089765,687.352724,132.383182)">
        <path d="M1461,653C1947.237,653 2342,1047.763 2342,1534C2342,2020.237 1947.237,2415 1461,2415C974.763,2415 580,2020.237 580,1534C580,1047.763 974.763,653 1461,653ZM1457.5,1157C1250.808,1157 1083,1324.808 1083,1531.5C1083,1738.192 1250.808,1906 1457.5,1906C1664.192,1906 1832,1738.192 1832,1531.5C1832,1324.808 1664.192,1157 1457.5,1157Z" style="fill:rgb(204,255,0);"/>
    </g>
    <g transform="matrix(0.930714,0,0,0.927611,61.385729,30.297828)">
        <path d="M987,243.109L987,897.891C987,984.05 917.283,1054 831.412,1054L175.588,1054C89.717,1054 20,984.05 20,897.891L20,243.109C20,156.95 89.717,87 175.588,87L831.412,87C917.283,87 987,156.95 987,243.109Z" style="fill:none;stroke:black;stroke-width:53.81px;"/>
    </g>
    <path d="M474,234C503.698,233.7 639.491,233.94 666.369,233.991C667.13,233.992 667.804,233.994 668.385,233.995C669.283,233.997 669.961,233.998 670.402,233.999C670.796,234 666.714,233.992 666.714,233.992L669.843,234.629C670.908,236.358 672.635,236.819 671,238C671.763,240.61 669.865,240.781 669,241L660,259L659,262L656,268L655,271L654,273L653,276L651,280L650,283L649,285L647,291L645,296L642,305L640,310L638,316L637,318L636,322L634,328L632,336L631,339L630,343L627,351L625,360L624,366L622,374C618.914,391.122 618.849,403.23 622,410L624,420L627,433L632,445L635,452L638,458L643,466L661,493L670,507L677,521L679,526L681,532L682,536L683,539L684,544L684,547L685,554L685,568L684,575L683,581L682,585L681,588L680,592L678,596L676,601L671,609L661,623L655,630L641,640L636,644L622,652L613,656L604,661L593,666L571,677L561,684L550,691L534,704L517,720L505,734L489,756L479,772L471,786L461,801L451,814L444,823L438,830L429,839L422,845L407,856L393,864L384,869L372,874L362,877L349,881L337,883L327,885L311,887L292,889L282,889L247,888L227,884L211,877L204,870L201,866L199,862L198,857L198,849L200,841L201,839L202,836L208,830L213,827L219,824L226,821L234,818L246,813L265,803L279,795L288,788L297,780L303,774L308,768L316,755L323,741L326,734L329,726L331,718L336,699L338,691L339,685L346,651L348,640L352,622L358,602L361,593L363,585L368,567L375,548L383,530L394,504L404,484L418,455L425,438L435,407L447,361L460,305L467,272L471,252L472,244L473,237C473,237 473.255,234.008 474,234Z"/>
</svg>
