<?xml version="1.0" encoding="UTF-8" standalone="no"?>
<!DOCTYPE svg PUBLIC "-//W3C//DTD SVG 1.1//EN" "http://www.w3.org/Graphics/SVG/1.1/DTD/svg11.dtd">
<svg width="100%" height="100%" viewBox="0 0 3745 1311" version="1.1" xmlns="http://www.w3.org/2000/svg" xmlns:xlink="http://www.w3.org/1999/xlink" xml:space="preserve" xmlns:serif="http://www.serif.com/" style="fill-rule:evenodd;clip-rule:evenodd;stroke-linecap:round;stroke-linejoin:round;stroke-miterlimit:1.5;">
    <g transform="matrix(1,0,0,1,-117,-138)">
        <g transform="matrix(0.778132,0,0,0.793657,370.027514,156.345546)">
            <g transform="matrix(0.938803,0,0,1,94.182244,0)">
                <g transform="matrix(801.330607,0,0,801.330607,1539,747)">
                    <path d="M0.066,-0L0.066,-0.728L0.35,-0.728C0.405,-0.728 0.452,-0.717 0.491,-0.696C0.529,-0.675 0.559,-0.646 0.579,-0.609C0.6,-0.572 0.61,-0.53 0.61,-0.482C0.61,-0.434 0.599,-0.391 0.579,-0.355C0.558,-0.318 0.528,-0.289 0.489,-0.269C0.45,-0.248 0.402,-0.238 0.346,-0.238L0.164,-0.238L0.164,-0.358L0.322,-0.358C0.353,-0.358 0.378,-0.363 0.398,-0.374C0.417,-0.384 0.432,-0.399 0.442,-0.418C0.451,-0.436 0.456,-0.458 0.456,-0.482C0.456,-0.506 0.451,-0.528 0.442,-0.546C0.432,-0.565 0.417,-0.579 0.397,-0.589C0.378,-0.599 0.352,-0.605 0.322,-0.605L0.215,-0.605L0.215,-0L0.066,-0Z" style="fill-rule:nonzero;"/>
                </g>
                <g transform="matrix(801.330607,0,0,801.330607,2047.557101,747)">
                    <path d="M0.215,0.011C0.18,0.011 0.149,0.004 0.122,-0.008C0.094,-0.02 0.073,-0.038 0.057,-0.062C0.041,-0.087 0.033,-0.117 0.033,-0.153C0.033,-0.183 0.039,-0.209 0.05,-0.229C0.061,-0.249 0.076,-0.266 0.096,-0.278C0.115,-0.291 0.137,-0.3 0.162,-0.307C0.186,-0.313 0.212,-0.318 0.239,-0.32C0.271,-0.324 0.296,-0.327 0.316,-0.329C0.335,-0.332 0.349,-0.337 0.358,-0.343C0.367,-0.349 0.372,-0.357 0.372,-0.369L0.372,-0.372C0.372,-0.387 0.368,-0.4 0.362,-0.411C0.355,-0.422 0.345,-0.43 0.333,-0.436C0.32,-0.442 0.304,-0.444 0.286,-0.444C0.267,-0.444 0.251,-0.442 0.237,-0.436C0.223,-0.43 0.212,-0.423 0.203,-0.413C0.194,-0.404 0.187,-0.393 0.183,-0.381L0.049,-0.404C0.058,-0.435 0.074,-0.462 0.096,-0.484C0.117,-0.507 0.145,-0.524 0.177,-0.535C0.209,-0.547 0.246,-0.553 0.286,-0.553C0.316,-0.553 0.344,-0.549 0.372,-0.542C0.4,-0.535 0.424,-0.525 0.446,-0.51C0.468,-0.495 0.486,-0.476 0.499,-0.452C0.512,-0.429 0.518,-0.401 0.518,-0.368L0.518,-0L0.379,-0L0.379,-0.076L0.374,-0.076C0.366,-0.059 0.354,-0.044 0.339,-0.031C0.325,-0.018 0.307,-0.008 0.286,-0C0.266,0.007 0.242,0.011 0.215,0.011ZM0.256,-0.092C0.279,-0.092 0.3,-0.097 0.317,-0.106C0.334,-0.115 0.348,-0.127 0.358,-0.143C0.368,-0.159 0.373,-0.176 0.373,-0.195L0.373,-0.254C0.368,-0.251 0.362,-0.248 0.353,-0.246C0.344,-0.243 0.335,-0.241 0.324,-0.239C0.313,-0.237 0.303,-0.235 0.292,-0.233C0.282,-0.232 0.272,-0.23 0.264,-0.229C0.246,-0.227 0.23,-0.223 0.217,-0.217C0.203,-0.211 0.193,-0.203 0.185,-0.194C0.177,-0.184 0.174,-0.172 0.174,-0.157C0.174,-0.143 0.177,-0.131 0.184,-0.121C0.192,-0.112 0.201,-0.104 0.214,-0.099C0.226,-0.095 0.24,-0.092 0.256,-0.092Z" style="fill-rule:nonzero;"/>
                </g>
                <g transform="matrix(801.330607,0,0,801.330607,2512.735159,747)">
                    <path d="M0.306,0.011C0.252,0.011 0.204,-0.001 0.164,-0.025C0.125,-0.048 0.094,-0.081 0.072,-0.123C0.051,-0.165 0.04,-0.215 0.04,-0.271C0.04,-0.327 0.051,-0.376 0.072,-0.419C0.094,-0.461 0.125,-0.494 0.164,-0.517C0.204,-0.541 0.252,-0.553 0.306,-0.553C0.339,-0.553 0.369,-0.549 0.396,-0.54C0.423,-0.532 0.448,-0.52 0.469,-0.504C0.49,-0.488 0.507,-0.469 0.521,-0.447C0.535,-0.424 0.544,-0.399 0.549,-0.371L0.413,-0.346C0.41,-0.36 0.405,-0.373 0.399,-0.384C0.393,-0.395 0.386,-0.405 0.377,-0.413C0.368,-0.421 0.358,-0.427 0.346,-0.431C0.335,-0.435 0.322,-0.437 0.308,-0.437C0.282,-0.437 0.26,-0.43 0.242,-0.416C0.225,-0.402 0.211,-0.383 0.202,-0.358C0.193,-0.333 0.189,-0.304 0.189,-0.271C0.189,-0.239 0.193,-0.21 0.202,-0.185C0.211,-0.16 0.225,-0.14 0.242,-0.126C0.26,-0.112 0.282,-0.105 0.308,-0.105C0.322,-0.105 0.335,-0.107 0.347,-0.111C0.359,-0.115 0.369,-0.122 0.378,-0.13C0.387,-0.138 0.395,-0.148 0.401,-0.16C0.407,-0.172 0.411,-0.185 0.414,-0.2L0.55,-0.175C0.545,-0.146 0.536,-0.12 0.522,-0.097C0.508,-0.075 0.491,-0.055 0.47,-0.039C0.449,-0.023 0.424,-0.011 0.397,-0.002C0.369,0.006 0.339,0.011 0.306,0.011Z" style="fill-rule:nonzero;"/>
                </g>
                <g transform="matrix(801.330607,0,0,801.330607,2984.259754,747)">
                    <path d="M0.195,-0.16L0.195,-0.336L0.217,-0.336L0.396,-0.546L0.565,-0.546L0.329,-0.272L0.295,-0.272L0.195,-0.16ZM0.062,-0L0.062,-0.728L0.209,-0.728L0.209,-0L0.062,-0ZM0.403,-0L0.239,-0.239L0.337,-0.343L0.576,-0L0.403,-0Z" style="fill-rule:nonzero;"/>
                </g>
                <g transform="matrix(801.330607,0,0,801.330607,3448.983538,747)">
                </g>
            </g>
        </g>
        <g transform="matrix(0.778132,0,0,0.793657,384.027514,721.345546)">
            <g transform="matrix(0.806209,0,0,1,298.243774,0)">
                <g transform="matrix(801.330607,0,0,801.330607,4804.635359,747)">
                </g>
                <text x="1539px" y="747px" style="font-family:'Inter-Regular', 'Inter';font-size:801.331px;">do P<tspan x="3241.967px 3694.589px " y="747px 747px ">ez</tspan>in</text>
            </g>
        </g>
        <g>
            <g transform="matrix(0.122979,0,0,0.122979,988.073232,201.488293)">
                <path d="M1461,653C1947.237,653 2342,1047.763 2342,1534C2342,2020.237 1947.237,2415 1461,2415C974.763,2415 580,2020.237 580,1534C580,1047.763 974.763,653 1461,653ZM1457.5,1157C1250.808,1157 1083,1324.808 1083,1531.5C1083,1738.192 1250.808,1906 1457.5,1906C1664.192,1906 1832,1738.192 1832,1531.5C1832,1324.808 1664.192,1157 1457.5,1157Z" style="fill:rgb(204,255,0);"/>
            </g>
            <g transform="matrix(1.275078,0,0,1.270827,130.498449,61.631358)">
                <path d="M987,243.109L987,897.891C987,984.05 917.283,1054 831.412,1054L175.588,1054C89.717,1054 20,984.05 20,897.891L20,243.109C20,156.95 89.717,87 175.588,87L831.412,87C917.283,87 987,156.95 987,243.109Z" style="fill:none;stroke:black;stroke-width:39.28px;"/>
            </g>
            <g transform="matrix(1.37,0,0,1.37,46.4,20.123333)">
                <path d="M474,234C503.698,233.7 639.491,233.94 666.369,233.991C667.13,233.992 667.804,233.994 668.385,233.995C669.283,233.997 669.961,233.998 670.402,233.999C670.796,234 666.714,233.992 666.714,233.992L669.843,234.629C670.908,236.358 672.635,236.819 671,238C671.763,240.61 669.865,240.781 669,241L660,259L659,262L656,268L655,271L654,273L653,276L651,280L650,283L649,285L647,291L645,296L642,305L640,310L638,316L637,318L636,322L634,328L632,336L631,339L630,343L627,351L625,360L624,366L622,374C618.914,391.122 618.849,403.23 622,410L624,420L627,433L632,445L635,452L638,458L643,466L661,493L670,507L677,521L679,526L681,532L682,536L683,539L684,544L684,547L685,554L685,568L684,575L683,581L682,585L681,588L680,592L678,596L676,601L671,609L661,623L655,630L641,640L636,644L622,652L613,656L604,661L593,666L571,677L561,684L550,691L534,704L517,720L505,734L489,756L479,772L471,786L461,801L451,814L444,823L438,830L429,839L422,845L407,856L393,864L384,869L372,874L362,877L349,881L337,883L327,885L311,887L292,889L282,889L247,888L227,884L211,877L204,870L201,866L199,862L198,857L198,849L200,841L201,839L202,836L208,830L213,827L219,824L226,821L234,818L246,813L265,803L279,795L288,788L297,780L303,774L308,768L316,755L323,741L326,734L329,726L331,718L336,699L338,691L339,685L346,651L348,640L352,622L358,602L361,593L363,585L368,567L375,548L383,530L394,504L404,484L418,455L425,438L435,407L447,361L460,305L467,272L471,252L472,244L473,237C473,237 473.255,234.008 474,234Z"/>
            </g>
        </g>
    </g>
</svg>
